<?xml version="1.0" encoding="utf-8"?>
<!-- Generator: Adobe Illustrator 16.0.0, SVG Export Plug-In . SVG Version: 6.00 Build 0)  -->
<!DOCTYPE svg PUBLIC "-//W3C//DTD SVG 1.1//EN" "http://www.w3.org/Graphics/SVG/1.1/DTD/svg11.dtd">
<svg version="1.1" id="Capa_1" xmlns="http://www.w3.org/2000/svg" xmlns:xlink="http://www.w3.org/1999/xlink" x="0px" y="0px"
	 width="450px" height="417.708px" viewBox="0 0 450 417.708" enable-background="new 0 0 450 417.708" xml:space="preserve">
<g>
	<g>
		<linearGradient id="SVGID_1_" gradientUnits="userSpaceOnUse" x1="65.9648" y1="280.4063" x2="376.8168" y2="135.4536">
			<stop  offset="0" style="stop-color:#432F1C"/>
			<stop  offset="0.1" style="stop-color:#997132"/>
			<stop  offset="0.15" style="stop-color:#FFFFFF"/>
			<stop  offset="0.22" style="stop-color:#CA9C49"/>
			<stop  offset="0.34" style="stop-color:#815A2B"/>
			<stop  offset="0.5" style="stop-color:#CBA655"/>
			<stop  offset="0.66" style="stop-color:#EFE285"/>
			<stop  offset="0.72" style="stop-color:#D3C16A"/>
			<stop  offset="0.77" style="stop-color:#FFFFFF"/>
			<stop  offset="0.83" style="stop-color:#947534"/>
			<stop  offset="1" style="stop-color:#5E4521"/>
		</linearGradient>
		<path fill-rule="evenodd" clip-rule="evenodd" fill="url(#SVGID_1_)" d="M221.392,43.765c3.857-0.374,7.292,2.063,10.689,4.488
			c2.241,1.588,4.463,3.168,6.086,3.333c1.481,0.141,3.379-0.998,5.259-2.124c3.11-1.87,6.189-3.707,9.997-2.535
			c3.87,0.392,6.76,3.456,9.612,6.474c1.886,2.005,3.759,3.992,5.308,4.463c1.427,0.432,3.515-0.318,5.565-1.053
			c3.435-1.23,6.82-2.446,10.322-0.536c3.698,1.135,5.933,4.702,8.143,8.234c1.457,2.314,2.901,4.625,4.347,5.397
			c1.298,0.698,3.502,0.376,5.682,0.052c3.575-0.539,7.102-1.068,10.175,1.476c3.44,1.836,4.946,5.773,6.429,9.67v0.012
			c0.967,2.568,1.935,5.112,3.195,6.15c1.151,0.937,3.361,1.038,5.547,1.151c3.631,0.168,7.206,0.346,9.716,3.438
			c3.006,2.467,3.71,6.624,4.402,10.735c0.453,2.709,0.912,5.397,1.94,6.652c0.937,1.148,3.092,1.681,5.223,2.213l0,0
			c3.508,0.882,6.973,1.751,8.84,5.25c2.474,3,2.352,7.225,2.229,11.406c-0.086,2.749-0.159,5.479,0.606,6.915
			c0.704,1.307,2.706,2.25,4.684,3.19c3.281,1.546,6.521,3.073,7.659,6.884c1.836,3.428,0.894,7.534-0.043,11.608
			c-0.612,2.682-1.225,5.348-0.754,6.902c0.429,1.421,2.217,2.74,3.974,4.044c2.921,2.152,5.792,4.286,6.165,8.253
			c1.127,3.716-0.594,7.558-2.302,11.359c-1.12,2.511-2.247,5.002-2.088,6.628c0.147,1.475,1.641,3.116,3.11,4.732
			c2.442,2.69,4.855,5.356,4.444,9.309c0.368,3.86-2.069,7.301-4.487,10.705c-1.592,2.229-3.178,4.457-3.337,6.073
			c-0.134,1.482,0.992,3.392,2.131,5.259c1.867,3.116,3.71,6.195,2.522,10.003c-0.386,3.863-3.447,6.753-6.478,9.612
			c-1.995,1.88-3.979,3.759-4.457,5.308c-0.429,1.42,0.318,3.514,1.054,5.571c1.236,3.428,2.448,6.808,0.545,10.31
			c-1.139,3.697-4.709,5.938-8.234,8.143c-2.32,1.457-4.641,2.908-5.412,4.347c-0.687,1.31-0.368,3.508-0.037,5.681
			c0.539,3.576,1.059,7.114-1.481,10.188c-1.837,3.428-5.768,4.935-9.673,6.416h0.006c-2.578,0.979-5.137,1.947-6.159,3.196
			c-0.949,1.151-1.047,3.367-1.145,5.541c-0.184,3.643-0.355,7.224-3.453,9.728c-2.474,3-6.624,3.71-10.738,4.396
			c-2.706,0.465-5.4,0.918-6.649,1.935c-1.145,0.943-1.684,3.098-2.216,5.222c-0.869,3.521-1.745,7.01-5.283,8.865
			c-3.006,2.455-7.206,2.332-11.369,2.21c-2.749-0.073-5.474-0.159-6.918,0.612c-1.298,0.698-2.241,2.706-3.184,4.684
			c-1.549,3.275-3.073,6.52-6.882,7.659c-3.435,1.837-7.542,0.894-11.613-0.037c-2.688-0.624-5.345-1.23-6.894-0.765
			c-1.427,0.434-2.749,2.216-4.047,3.973c-2.155,2.927-4.286,5.798-8.253,6.172c-3.723,1.126-7.555-0.601-11.363-2.303
			c-2.51-1.126-5.002-2.246-6.624-2.094c-1.476,0.153-3.122,1.641-4.738,3.116c-2.688,2.437-5.345,4.854-9.312,4.438
			c-3.86,0.38-7.292-2.057-10.693-4.481c-2.24-1.592-4.46-3.177-6.079-3.343c-1.487-0.135-3.386,0.992-5.269,2.131
			c-3.109,1.873-6.183,3.71-9.994,2.535c-3.863-0.393-6.75-3.453-9.608-6.479c-1.886-2.008-3.763-4.004-5.312-4.456
			c-1.426-0.441-3.511,0.312-5.571,1.053c-3.429,1.23-6.813,2.437-10.313,0.532c-3.698-1.133-5.93-4.701-8.146-8.234
			c-1.457-2.32-2.902-4.628-4.341-5.399c-1.308-0.698-3.508-0.374-5.679-0.043c-3.578,0.533-7.117,1.06-10.188-1.487
			c-3.435-1.825-4.935-5.768-6.416-9.673h-0.003c-0.979-2.559-1.956-5.125-3.198-6.147c-1.146-0.942-3.361-1.053-5.547-1.151
			c-3.628-0.184-7.209-0.355-9.72-3.447c-3.006-2.467-3.707-6.63-4.401-10.732c-0.456-2.712-0.909-5.406-1.935-6.661
			c-0.937-1.139-3.098-1.677-5.226-2.204h0.003c-3.523-0.881-7.004-1.763-8.858-5.29c-2.458-3.006-2.336-7.212-2.22-11.369
			c0.086-2.749,0.168-5.479-0.603-6.912c-0.695-1.31-2.706-2.253-4.687-3.195c-3.278-1.543-6.52-3.074-7.656-6.875
			c-1.84-3.435-0.894-7.537,0.043-11.614c0.612-2.682,1.228-5.351,0.753-6.894c-0.432-1.421-2.216-2.743-3.977-4.053
			c-2.911-2.155-5.788-4.286-6.162-8.252c-1.13-3.723,0.594-7.555,2.305-11.363c1.124-2.51,2.241-4.996,2.084-6.624
			c-0.146-1.469-1.641-3.116-3.106-4.738c-2.446-2.688-4.855-5.345-4.442-9.303c-0.379-3.857,2.066-7.298,4.488-10.699
			c1.588-2.24,3.168-4.463,3.33-6.085c0.144-1.476-0.998-3.383-2.121-5.262c-1.874-3.107-3.716-6.18-2.538-9.998
			c0.395-3.863,3.453-6.75,6.483-9.603c1.999-1.886,3.985-3.762,4.454-5.312c0.432-1.42-0.315-3.508-1.056-5.574
			c-1.225-3.422-2.44-6.805-0.533-10.31c1.132-3.695,4.702-5.933,8.228-8.146c2.33-1.454,4.635-2.902,5.406-4.347
			c0.694-1.301,0.37-3.508,0.046-5.676c-0.542-3.603-1.068-7.157,1.506-10.224c1.846-3.417,5.764-4.904,9.643-6.386
			c2.574-0.977,5.134-1.947,6.156-3.202c0.942-1.139,1.05-3.354,1.153-5.54c0.175-3.631,0.353-7.212,3.444-9.726
			c2.47-3.003,6.621-3.698,10.732-4.396c2.712-0.453,5.402-0.906,6.654-1.935c1.148-0.946,1.689-3.089,2.217-5.213
			c0.875-3.514,1.741-6.982,5.243-8.846c3-2.477,7.222-2.354,11.405-2.238c2.749,0.08,5.482,0.166,6.919-0.603
			c1.304-0.698,2.249-2.706,3.187-4.687c1.546-3.279,3.076-6.515,6.881-7.656c3.432-1.836,7.543-0.894,11.614,0.043
			c2.685,0.606,5.348,1.225,6.896,0.753c1.421-0.432,2.743-2.216,4.047-3.973c2.155-2.917,4.288-5.792,8.253-6.165
			c3.719-1.124,7.558,0.597,11.365,2.302c2.504,1.123,4.996,2.243,6.621,2.084c1.473-0.144,3.113-1.634,4.733-3.101
			C214.771,45.77,217.431,43.351,221.392,43.765L221.392,43.765z M228.717,52.979L228.717,52.979
			c-2.568-1.828-5.164-3.676-6.902-3.413l-0.435-2.872l-0.432,2.872c-1.479-0.23-3.211,1.344-4.959,2.933
			c-2.333,2.115-4.684,4.255-8.078,4.588c-3.156,0.306-6.346-1.12-9.555-2.562c-2.886-1.295-5.797-2.608-7.441-2.005l-0.869,0.169
			c-1.481,0.07-2.874,1.953-4.288,3.854c-1.868,2.525-3.757,5.079-7.02,6.064c-3.046,0.924-6.446,0.144-9.875-0.637
			c-3.076-0.707-6.187-1.421-7.689-0.515l-0.806,0.337c-1.447,0.349-2.445,2.464-3.455,4.61c-1.342,2.834-2.694,5.712-5.709,7.319
			c-2.795,1.491-6.288,1.396-9.809,1.286c-3.155-0.089-6.342-0.178-7.637,1.007l-0.729,0.472c-1.351,0.634-1.917,2.902-2.489,5.204
			c-0.762,3.049-1.53,6.144-4.166,8.298c-2.461,2.023-5.911,2.605-9.379,3.184c-3.116,0.53-6.254,1.059-7.289,2.464l-0.627,0.624
			c-1.197,0.876-1.311,3.221-1.424,5.581c-0.15,3.141-0.306,6.314-2.474,8.957c-2.014,2.458-5.277,3.698-8.564,4.95
			c-2.954,1.124-5.945,2.256-6.68,3.833l-0.478,0.729c-1.007,1.102-0.661,3.419-0.31,5.77c0.46,3.098,0.928,6.235-0.682,9.245
			c-1.494,2.792-4.458,4.655-7.448,6.532c-2.672,1.665-5.369,3.361-5.789,5.066l-0.331,0.805c-0.777,1.292,0.009,3.49,0.812,5.715
			c1.062,2.96,2.133,5.948,1.145,9.214c-0.924,3.04-3.465,5.437-6.027,7.849c-2.296,2.168-4.619,4.362-4.699,6.095l-0.162,0.87
			c-0.511,1.402,0.688,3.41,1.913,5.443c1.619,2.688,3.257,5.421,2.923,8.807c-0.315,3.156-2.342,6.006-4.384,8.877
			c-1.827,2.568-3.673,5.164-3.41,6.903v0.869c-0.224,1.479,1.344,3.211,2.938,4.959c2.112,2.333,4.249,4.684,4.583,8.081
			c0.309,3.159-1.12,6.343-2.559,9.551c-1.301,2.884-2.605,5.798-2.005,7.445l0.162,0.857c0.074,1.494,1.953,2.89,3.86,4.298
			c2.522,1.861,5.072,3.753,6.064,7.016c0.924,3.049,0.144,6.453-0.643,9.875c-0.704,3.079-1.417,6.183-0.511,7.695l0.331,0.802
			c0.355,1.445,2.477,2.443,4.616,3.459c2.834,1.335,5.712,2.694,7.322,5.706c1.494,2.792,1.394,6.288,1.286,9.802
			c-0.089,3.165-0.181,6.361,0.995,7.641l0.486,0.729c0.631,1.347,2.896,1.922,5.201,2.485h0.012
			c3.043,0.76,6.119,1.531,8.287,4.176c2.02,2.461,2.602,5.901,3.187,9.379c0.526,3.11,1.053,6.245,2.455,7.286l0.627,0.625
			c0.879,1.194,3.218,1.316,5.584,1.427c3.134,0.153,6.312,0.306,8.947,2.467c2.464,2.021,3.707,5.277,4.953,8.571v0.012
			c1.123,2.951,2.259,5.926,3.839,6.667l0.729,0.484c1.093,1.004,3.416,0.649,5.767,0.306c3.101-0.465,6.235-0.93,9.248,0.674
			c2.791,1.494,4.652,4.463,6.522,7.451c1.678,2.675,3.371,5.369,5.072,5.797l0.806,0.318c1.295,0.784,3.492-0.006,5.721-0.802
			c2.954-1.06,5.945-2.143,9.208-1.145c3.04,0.918,5.439,3.459,7.852,6.019c2.171,2.295,4.359,4.621,6.092,4.701l0.869,0.165
			c1.402,0.515,3.41-0.697,5.449-1.922c2.685-1.61,5.412-3.245,8.801-2.914c3.156,0.312,6.009,2.339,8.874,4.384
			c2.574,1.824,5.167,3.667,6.909,3.403h0.866c1.481,0.227,3.211-1.335,4.968-2.938c2.323-2.106,4.675-4.249,8.072-4.58
			c3.153-0.318,6.343,1.121,9.551,2.56c2.884,1.304,5.798,2.608,7.451,2.008l0.856-0.165c1.481-0.067,2.878-1.953,4.286-3.857
			c1.873-2.528,3.765-5.074,7.028-6.066c3.049-0.931,6.446-0.141,9.868,0.643c3.086,0.704,6.184,1.42,7.69,0.508l0.808-0.318
			c1.445-0.367,2.449-2.485,3.465-4.622c1.335-2.835,2.688-5.712,5.706-7.328c2.792-1.494,6.288-1.384,9.802-1.286
			c3.165,0.085,6.355,0.184,7.641-0.992l0.729-0.484c1.347-0.63,1.916-2.896,2.486-5.198c0.759-3.049,1.53-6.141,4.175-8.295
			c2.455-2.027,5.901-2.614,9.373-3.19c3.116-0.532,6.251-1.053,7.285-2.461l0.631-0.625c1.194-0.881,1.311-3.22,1.421-5.583
			c0.158-3.146,0.306-6.318,2.473-8.951c2.015-2.461,5.29-3.704,8.565-4.959h0.019c2.938-1.114,5.926-2.253,6.667-3.833l0.483-0.729
			c0.998-1.096,0.648-3.41,0.294-5.773c-0.453-3.085-0.925-6.232,0.686-9.238c1.494-2.798,4.463-4.659,7.444-6.532
			c2.682-1.672,5.376-3.361,5.792-5.063l0.331-0.802c0.771-1.298-0.013-3.49-0.814-5.73c-1.053-2.945-2.131-5.938-1.139-9.202
			c0.924-3.042,3.459-5.443,6.018-7.855c2.303-2.161,4.623-4.359,4.702-6.098l0.171-0.857c0.509-1.408-0.697-3.417-1.922-5.449
			c-1.61-2.694-3.257-5.424-2.914-8.804c0.306-3.159,2.332-6.012,4.377-8.89c1.831-2.559,3.674-5.155,3.41-6.894v-0.869
			c0.221-1.476-1.347-3.211-2.938-4.965c-2.106-2.327-4.243-4.674-4.579-8.072c-0.307-3.159,1.12-6.342,2.559-9.55
			c1.298-2.89,2.608-5.798,2.008-7.442l-0.171-0.87c-0.062-1.481-1.953-2.877-3.857-4.285c-2.522-1.87-5.075-3.762-6.061-7.025
			c-0.931-3.043-0.147-6.45,0.637-9.875c0.71-3.076,1.42-6.184,0.515-7.687l-0.331-0.805c-0.355-1.448-2.474-2.449-4.616-3.459
			c-2.828-1.341-5.712-2.697-7.322-5.706c-1.494-2.798-1.39-6.288-1.292-9.805c0.092-3.156,0.185-6.349-0.997-7.644l-0.472-0.729
			c-0.631-1.347-2.902-1.913-5.21-2.486l0,0c-3.043-0.762-6.123-1.524-8.29-4.169c-2.021-2.455-2.607-5.908-3.189-9.379
			c-0.521-3.113-1.06-6.253-2.455-7.286l-0.631-0.624c-0.888-1.206-3.214-1.316-5.583-1.43c-3.141-0.147-6.313-0.303-8.951-2.477
			c-2.455-2.002-3.697-5.268-4.946-8.562v0.003c-1.133-2.957-2.271-5.945-3.839-6.686l-0.729-0.48
			c-1.096-1.004-3.416-0.652-5.773-0.303c-3.098,0.459-6.232,0.927-9.244-0.68c-2.792-1.491-4.653-4.463-6.526-7.448
			c-1.671-2.672-3.367-5.366-5.069-5.782l-0.808-0.337c-1.286-0.78-3.49,0.006-5.719,0.812c-2.95,1.059-5.95,2.137-9.201,1.145
			c-3.043-0.928-5.443-3.465-7.855-6.024c-2.167-2.299-4.358-4.625-6.098-4.698l-0.856-0.169c-1.408-0.508-3.417,0.695-5.455,1.92
			c-2.688,1.61-5.418,3.25-8.804,2.914C234.438,57.05,231.585,55.02,228.717,52.979z"/>
		<linearGradient id="SVGID_2_" gradientUnits="userSpaceOnUse" x1="383.4365" y1="207.9351" x2="59.3344" y2="207.9351">
			<stop  offset="0" style="stop-color:#CDA649"/>
			<stop  offset="0.16" style="stop-color:#C89C44"/>
			<stop  offset="0.54" style="stop-color:#F3F1BA"/>
			<stop  offset="0.56" style="stop-color:#F4ED9D"/>
			<stop  offset="0.69" style="stop-color:#CCB56C"/>
			<stop  offset="0.85" style="stop-color:#C6AA61"/>
			<stop  offset="1" style="stop-color:#D9C681"/>
		</linearGradient>
		<path fill-rule="evenodd" clip-rule="evenodd" fill="url(#SVGID_2_)" d="M221.38,46.697c5.311-0.811,11.252,7.258,16.505,7.778
			c5.241,0.505,9.906-6.508,14.951-4.68c5.369,0.239,9.624,9.315,14.669,10.845c5.044,1.524,10.982-4.45,15.587-1.671
			c5.204,1.286,7.616,11.011,12.263,13.496c4.646,2.486,11.639-2.222,15.605,1.402c4.867,2.271,5.326,12.29,9.403,15.633
			c4.071,3.343,11.853,0.095,15.03,4.417c4.328,3.178,2.822,13.096,6.178,17.17c3.336,4.074,11.602,2.403,13.879,7.264
			c3.618,3.97,0.214,13.398,2.7,18.039c2.485,4.65,10.909,4.625,12.195,9.838c2.779,4.598-2.394,13.182-0.863,18.22
			c1.524,5.042,9.802,6.667,10.04,12.03c1.831,5.051-4.928,12.456-4.401,17.699c0.514,5.244,8.313,8.442,7.506,13.757
			c0.808,5.305-7.261,11.262-7.781,16.496c-0.521,5.241,6.508,9.906,4.677,14.963c-0.238,5.363-9.317,9.624-10.849,14.663
			c-1.524,5.038,4.451,10.989,1.672,15.581c-1.286,5.216-11.008,7.616-13.5,12.269c-2.479,4.641,2.223,11.645-1.396,15.612
			c-2.277,4.861-12.287,5.32-15.63,9.391c-3.343,4.078-0.099,11.853-4.427,15.036c-3.178,4.322-13.096,2.829-17.16,6.172
			c-4.078,3.342-2.406,11.607-7.273,13.885c-3.967,3.625-13.39,0.221-18.036,2.706c-4.646,2.474-4.628,10.904-9.832,12.195
			c-4.604,2.779-13.182-2.399-18.22-0.881c-5.045,1.542-6.667,9.813-12.036,10.053c-5.045,1.824-12.453-4.929-17.693-4.408
			c-5.247,0.514-8.449,8.313-13.763,7.506c-5.309,0.808-11.253-7.262-16.5-7.781c-5.237-0.502-9.905,6.508-14.956,4.684
			c-5.363-0.239-9.621-9.318-14.666-10.85c-5.038-1.523-10.986,4.457-15.584,1.678c-5.21-1.291-7.616-11.02-12.266-13.499
			c-4.647-2.492-11.645,2.222-15.603-1.402c-4.87-2.277-5.333-12.293-9.407-15.636c-4.071-3.343-11.853-0.099-15.033-4.421
			c-4.322-3.184-2.822-13.089-6.165-17.154c-3.346-4.083-11.607-2.412-13.885-7.273c-3.622-3.967-0.218-13.396-2.7-18.042
			c-2.482-4.646-10.913-4.622-12.202-9.838c-2.783-4.592,2.403-13.175,0.87-18.22c-1.528-5.045-9.802-6.661-10.044-12.024
			c-1.827-5.057,4.922-12.459,4.411-17.705c-0.517-5.241-8.317-8.449-7.509-13.754c-0.808-5.314,7.258-11.256,7.778-16.5
			c0.518-5.244-6.508-9.906-4.681-14.957c0.242-5.363,9.318-9.624,10.846-14.666c1.527-5.038-4.454-10.986-1.671-15.584
			c1.289-5.213,11.014-7.616,13.502-12.263c2.482-4.65-2.222-11.645,1.399-15.615c2.277-4.861,12.287-5.323,15.63-9.397
			c3.346-4.075,0.098-11.859,4.42-15.037c3.181-4.322,13.093-2.819,17.167-6.168c4.077-3.336,2.403-11.61,7.273-13.882
			c3.958-3.625,13.389-0.214,18.033-2.7c4.646-2.479,4.625-10.913,9.835-12.198c4.598-2.779,13.181,2.403,18.22,0.869
			c5.045-1.524,6.667-9.805,12.03-10.043c5.051-1.828,12.455,4.925,17.702,4.402C212.87,53.686,216.071,45.886,221.38,46.697z"/>
		<linearGradient id="SVGID_3_" gradientUnits="userSpaceOnUse" x1="378.4883" y1="207.9351" x2="69.5552" y2="207.9351">
			<stop  offset="0" style="stop-color:#A9873F"/>
			<stop  offset="0.16" style="stop-color:#A7813B"/>
			<stop  offset="0.54" style="stop-color:#C3B98B"/>
			<stop  offset="0.56" style="stop-color:#C4B77A"/>
			<stop  offset="0.69" style="stop-color:#AB9458"/>
			<stop  offset="0.85" style="stop-color:#A58B4F"/>
			<stop  offset="1" style="stop-color:#B19E67"/>
		</linearGradient>
		<path fill-rule="evenodd" clip-rule="evenodd" fill="url(#SVGID_3_)" d="M224.429,53.468l-2.967,63.071l-6.492-62.814
			l0.937,65.747l-11.038-64.816l5.409,67.525l-15.961-65.829l9.765,65.018l-19.649-62.743l13.46,61.688L175.365,61.33l17.926,63.267
			l-27.44-59.768l22.701,63.831l-32.453-59.45l26.264,60.271l-35.224-55.52l28.964,56.104l-37.021-51.151l33.685,56.471
			l-41.972-50.615l38.451,55.771l-46.743-49.03l40.976,51.426L115.086,98.42l42.494,46.688l-48.996-39.813l47.15,45.828
			l-53.64-38.034l51.576,43.927l-57.84-35.267l52.887,39.066l-58.265-30.467l53.138,34.104l-57.635-25.78l57.402,32.062
			l-61.654-22.851l61.18,29.074L77.89,157.865l61.201,24.051l-64.17-14.354l60.153,19.187l-62.345-9.982l63.745,16.104
			l-65.462-6.113l66.625,12.254l-67.724-1.62l65.328,7.389l-65.686,2.746l63.068,2.969l-62.805,6.49l65.747-0.943l-64.822,11.039
			l67.531-5.406l-65.838,15.961l65.024-9.777l-62.747,19.665l61.685-13.469l-58.985,22.53l63.267-17.92l-59.756,27.434
			l63.821-22.701l-59.453,32.46l60.276-26.264l-55.522,35.215l56.104-28.958l-51.145,37.021l56.462-33.69l-50.609,41.968
			l55.771-38.441l-49.036,46.737l51.43-40.97l-44.515,48.39l46.694-42.494l-39.819,49.002l45.825-47.147l-38.028,53.631
			l43.921-51.573l-35.261,57.843l39.065-52.884l-30.47,58.259l34.104-53.141l-25.78,57.646l32.065-57.414l-22.857,61.65
			l29.077-61.173l-19.092,64.993l24.054-61.197l-14.359,64.167l19.193-60.151l-9.988,62.336l16.11-63.738l-6.113,65.465
			l12.257-66.628l-1.626,67.724l7.393-65.33l2.743,65.691l2.969-63.071l6.49,62.802l-0.937-65.747l11.038,64.823l-5.412-67.522
			l15.961,65.832l-9.766-65.024l19.652,62.752l-13.463-61.693l22.53,58.987l-17.926-63.261l27.434,59.747l-22.701-63.818
			l32.46,59.459l-26.265-60.279l35.228,55.522l-28.971-56.098l37.027,51.139l-33.69-56.478l41.968,50.619l-38.447-55.773
			l46.743,49.039l-40.97-51.427l48.396,44.508l-42.506-46.688l49.008,39.818l-47.153-45.831l53.637,38.031l-51.579-43.927
			l57.843,35.271l-52.884-39.072l58.259,30.477l-53.129-34.101l57.629,25.774l-57.408-32.056l61.663,22.848l-61.186-29.081
			l64.993,19.101l-61.197-24.06l64.16,14.363l-60.145-19.193l62.343,9.985l-63.744-16.113l65.465,6.122l-66.628-12.257l67.729,1.616
			l-65.336-7.387l65.691-2.746l-63.071-2.96l62.802-6.493l-65.74,0.937l64.822-11.038l-67.534,5.409l65.844-15.958l-65.03,9.765
			l62.753-19.652l-61.688,13.457l58.981-22.523l-63.261,17.92l59.753-27.437l-63.824,22.698l59.453-32.454l-60.273,26.271
			l55.517-35.227l-56.092,28.964l51.145-37.024l-56.471,33.684l50.618-41.964l-55.779,38.454l49.032-46.74l-51.427,40.967
			l44.521-48.393l-46.7,42.498l39.818-48.996l-45.824,47.147l38.024-53.634l-43.921,51.573l35.265-57.846l-39.072,52.887
			l30.477-58.262l-34.101,53.141l25.78-57.638l-32.063,57.405l22.849-61.657l-29.074,61.18l19.095-64.981l-24.054,61.188
			l14.356-64.167l-19.193,60.151l9.985-62.339l-16.102,63.744l6.11-65.465l-12.257,66.625l1.622-67.727l-7.386,65.336
			L224.429,53.468L224.429,53.468z M223.987,207.65L223.987,207.65h0.021h0.021h0.021h0.019h0.009l0.016,0.012h0.003l0.027,0.006
			l0.013,0.003l0.019,0.009l0.006,0.009l0.019,0.016l0.009,0.009l0.01,0.003l0.019,0.012l0.003,0.003l0.009,0.013l0.009,0.012
			l0.016,0.016h0.003l0.01,0.019v0.006l0.012,0.024l0.006,0.006l0.004,0.016l0.003,0.003l0.003,0.021l0.006,0.027v0.034v0.018v0.006
			v0.03l-0.006,0.003v0.019l-0.003,0.019h-0.003l-0.01,0.024v0.006l-0.012,0.021h-0.004l-0.015,0.021l-0.01,0.016l-0.009,0.009
			l-0.019,0.019l-0.021,0.009v0.006l-0.009,0.012l-0.01,0.003l-0.018,0.013l-0.028,0.012v0.003l-0.018,0.003l-0.021,0.006
			l-0.021,0.006h-0.013l-0.019,0.006h-0.024h-0.006l-0.033-0.006h-0.004l-0.018-0.006l-0.019-0.006l-0.003-0.003l-0.021-0.003
			l-0.021-0.015l-0.024-0.024l-0.016-0.006l-0.009-0.006v-0.003l-0.021-0.016v-0.003l-0.016-0.018l-0.003-0.006l-0.016-0.021
			l-0.006-0.009l-0.006-0.021l-0.003-0.006l-0.013-0.021l-0.003-0.024l-0.01-0.028v-0.03v-0.009v-0.024l0.004-0.012v-0.012
			l0.006-0.019l0.003-0.009l0.006-0.021l0.01-0.012l0.009-0.024l0.003-0.003l0.016-0.024l0.009-0.006l0.013-0.019l0.006-0.009
			l0.013-0.009l0.006-0.003l0.019-0.012l0.021-0.016l0.003-0.009l0.021-0.009l0.009-0.003l0.016-0.003l0.006-0.003h0.021
			L223.987,207.65L223.987,207.65z"/>
	</g>
	<g>
		<g>
			<g>
				<g>
					<path fill-rule="evenodd" clip-rule="evenodd" fill="#E4D37D" d="M355.53,176.803v0.006
						c8.57,36.945,1.285,73.972-17.375,103.91c-18.648,29.938-48.69,52.779-85.626,61.356h-0.012h-0.007
						c-36.944,8.571-73.978,1.292-103.912-17.362c-29.932-18.661-52.779-48.696-61.357-85.638v-0.006l-0.003-0.006
						c-8.571-36.945-1.291-73.978,17.369-103.91c18.654-29.938,48.693-52.782,85.632-61.359h0.012l0.003-0.003
						c36.944-8.571,73.981-1.289,103.913,17.369c29.938,18.661,52.785,48.699,61.356,85.632L355.53,176.803L355.53,176.803z
						 M342.281,179.883L342.281,179.883v-0.006v-0.006c-7.727-33.286-28.321-60.353-55.308-77.17
						c-26.981-16.821-60.359-23.387-93.643-15.658h-0.01h-0.006c-33.283,7.727-60.353,28.318-77.171,55.299
						c-16.817,26.984-23.381,60.359-15.657,93.649l0,0l0.003,0.012c7.727,33.28,28.318,60.353,55.302,77.164
						c26.98,16.824,60.356,23.387,93.646,15.667h0.007l0.006-0.006c33.286-7.727,60.358-28.321,77.17-55.296
						C343.438,246.545,350.008,213.172,342.281,179.883z"/>
					<path fill-rule="evenodd" clip-rule="evenodd" fill="#F8EBAC" d="M276.541,82.454h0.006
						c34.003,15.122,58.768,42.639,71.336,74.884c-3.336,3.417-6.899,6.731-10.658,9.937c-0.515-1.503-1.054-2.997-1.629-4.482
						c-11.265-29.313-33.66-54.35-64.504-68.066h-0.006l-0.013-0.009c-30.831-13.714-64.424-13.588-93.74-2.324
						c-29.316,11.262-54.353,33.667-68.069,64.51l-0.003,0.003l-0.007,0.009c-8.458,19.016-11.65,39.084-10.208,58.541
						c-4.623-0.98-9.169-2.069-13.644-3.251c-0.864-20.268,2.804-41.02,11.583-60.751l0.003-0.013v-0.003
						c15.229-34.223,43.003-59.082,75.526-71.581c32.521-12.492,69.797-12.63,104.026,2.587V82.454z"/>
					<linearGradient id="SVGID_4_" gradientUnits="userSpaceOnUse" x1="132.0762" y1="350.8564" x2="310.6984" y2="65.0011">
						<stop  offset="0" style="stop-color:#432F1C"/>
						<stop  offset="0.1" style="stop-color:#997132"/>
						<stop  offset="0.22" style="stop-color:#CA9C49"/>
						<stop  offset="0.34" style="stop-color:#815A2B"/>
						<stop  offset="0.5" style="stop-color:#CBA655"/>
						<stop  offset="0.66" style="stop-color:#EFE285"/>
						<stop  offset="0.83" style="stop-color:#947534"/>
						<stop  offset="1" style="stop-color:#5E4521"/>
					</linearGradient>
					<path fill-rule="evenodd" clip-rule="evenodd" fill="url(#SVGID_4_)" d="M221.38,79.292c35.521,0,67.688,14.4,90.97,37.68
						c23.271,23.283,37.683,55.442,37.683,90.964c0,35.524-14.412,67.685-37.683,90.967c-23.282,23.277-55.449,37.676-90.97,37.676
						c-35.521,0-67.682-14.399-90.961-37.676c-23.28-23.282-37.68-55.442-37.68-90.967c0-35.521,14.399-67.681,37.68-90.964
						C153.698,93.691,185.858,79.292,221.38,79.292L221.38,79.292z M309.858,119.459L309.858,119.459
						c-22.641-22.637-53.925-36.647-88.479-36.647c-34.548,0-65.829,14.011-88.476,36.647
						c-22.637,22.649-36.645,53.928-36.645,88.476c0,34.551,14.008,65.829,36.645,88.469c22.646,22.646,53.928,36.647,88.476,36.647
						c34.554,0,65.838-14.001,88.479-36.647c22.64-22.64,36.647-53.918,36.647-88.469
						C346.506,173.387,332.498,142.109,309.858,119.459z"/>
					<linearGradient id="SVGID_5_" gradientUnits="userSpaceOnUse" x1="96.9727" y1="207.9365" x2="345.7891" y2="207.9365">
						<stop  offset="0" style="stop-color:#B1B1B0"/>
						<stop  offset="0.1441" style="stop-color:#B1B1B0"/>
						<stop  offset="1" style="stop-color:#B1B1B0"/>
					</linearGradient>
					<path fill-rule="evenodd" clip-rule="evenodd" fill="url(#SVGID_5_)" d="M221.383,332.341
						c68.522,0,124.406-55.883,124.406-124.406c0-68.52-55.884-124.403-124.406-124.403c-68.523,0-124.41,55.883-124.41,124.403
						C96.973,276.458,152.859,332.341,221.383,332.341z"/>
					<path fill-rule="evenodd" clip-rule="evenodd" fill="#003891" d="M221.383,332.341c68.522,0,124.406-55.883,124.406-124.406
						v-0.208H96.979l-0.007,0.208C96.973,276.458,152.859,332.341,221.383,332.341z"/>
					<linearGradient id="SVGID_6_" gradientUnits="userSpaceOnUse" x1="260.2539" y1="111.7295" x2="182.5153" y2="304.1395">
						<stop  offset="0" style="stop-color:#432F1C"/>
						<stop  offset="0.1" style="stop-color:#997132"/>
						<stop  offset="0.15" style="stop-color:#FFFFFF"/>
						<stop  offset="0.22" style="stop-color:#CA9C49"/>
						<stop  offset="0.34" style="stop-color:#815A2B"/>
						<stop  offset="0.5" style="stop-color:#CBA655"/>
						<stop  offset="0.66" style="stop-color:#EFE285"/>
						<stop  offset="0.72" style="stop-color:#D3C16A"/>
						<stop  offset="0.77" style="stop-color:#FFFFFF"/>
						<stop  offset="0.83" style="stop-color:#947534"/>
						<stop  offset="1" style="stop-color:#5E4521"/>
					</linearGradient>
					<path fill-rule="evenodd" clip-rule="evenodd" fill="url(#SVGID_6_)" d="M204.197,112.704
						c52.593-9.489,102.931,25.453,112.42,78.049s-25.456,102.92-78.046,112.41c-52.597,9.496-102.931-25.444-112.417-78.046
						C116.662,172.524,151.602,122.196,204.197,112.704z"/>
					<linearGradient id="SVGID_7_" gradientUnits="userSpaceOnUse" x1="125.6123" y1="207.9351" x2="317.1553" y2="207.9351">
						<stop  offset="0" style="stop-color:#AFAB9F"/>
						<stop  offset="0.05" style="stop-color:#B6B3A6"/>
						<stop  offset="0.13" style="stop-color:#FFFFFF"/>
						<stop  offset="0.49" style="stop-color:#B0A893"/>
						<stop  offset="0.84" style="stop-color:#FFFFFF"/>
						<stop  offset="0.9" style="stop-color:#CECCC7"/>
						<stop  offset="1" style="stop-color:#999382"/>
					</linearGradient>
					<path fill-rule="evenodd" clip-rule="evenodd" fill="url(#SVGID_7_)" d="M221.383,303.702
						c52.746,0,95.772-43.021,95.772-95.767s-43.026-95.767-95.772-95.767s-95.771,43.021-95.771,95.767
						S168.637,303.702,221.383,303.702z"/>
					<linearGradient id="SVGID_8_" gradientUnits="userSpaceOnUse" x1="247.8105" y1="294.3799" x2="191.0808" y2="108.8253">
						<stop  offset="0" style="stop-color:#B09459"/>
						<stop  offset="0.12" style="stop-color:#87592C"/>
						<stop  offset="0.4" style="stop-color:#F9F3B0"/>
						<stop  offset="0.67" style="stop-color:#C8AB5A"/>
						<stop  offset="0.85" style="stop-color:#AE8738"/>
						<stop  offset="1" style="stop-color:#925E2D"/>
					</linearGradient>
					<path fill-rule="evenodd" clip-rule="evenodd" fill="url(#SVGID_8_)" d="M228.267,127.97
						c22.083,1.898,41.307,12.569,54.519,28.291c13.236,15.713,20.461,36.477,18.563,58.56c-1.897,22.076-12.563,41.3-28.284,54.524
						c-15.722,13.224-36.477,20.46-58.563,18.556c-22.082-1.904-41.3-12.569-54.527-28.285
						c-13.227-15.716-20.457-36.482-18.557-58.559c1.901-22.083,12.572-41.303,28.288-54.531
						C185.421,133.302,206.185,126.069,228.267,127.97L228.267,127.97z M277.472,160.73L277.472,160.73
						c-12.073-14.348-29.632-24.101-49.805-25.833c-20.166-1.735-39.133,4.873-53.486,16.946
						c-14.351,12.082-24.101,29.641-25.836,49.811c-1.736,20.169,4.87,39.124,16.946,53.486
						c12.082,14.351,29.638,24.098,49.808,25.836c20.166,1.732,39.133-4.873,53.496-16.946
						c14.344-12.085,24.091-29.644,25.823-49.811C296.156,194.053,289.551,175.089,277.472,160.73z"/>
					<path fill-rule="evenodd" clip-rule="evenodd" fill="#FFFFFF" d="M221.383,128.894c43.538,0,79.041,35.509,79.041,79.041
						s-35.503,79.041-79.041,79.041c-43.535,0-79.041-35.509-79.041-79.041S177.848,128.894,221.383,128.894z"/>
					<linearGradient id="SVGID_9_" gradientUnits="userSpaceOnUse" x1="169.9175" y1="146.5991" x2="280.6344" y2="278.5464">
						<stop  offset="0" style="stop-color:#F9F4B6"/>
						<stop  offset="0.22" style="stop-color:#CA9C49"/>
						<stop  offset="0.38" style="stop-color:#DDC47A"/>
						<stop  offset="0.5" style="stop-color:#CBA655"/>
						<stop  offset="0.66" style="stop-color:#EFE285"/>
						<stop  offset="0.72" style="stop-color:#D3C16A"/>
						<stop  offset="1" style="stop-color:#F9F4B6"/>
					</linearGradient>
					<path fill-rule="evenodd" clip-rule="evenodd" fill="url(#SVGID_9_)" d="M221.383,129.628h0.003
						c21.568,0,41.147,8.798,55.326,22.977c14.186,14.185,22.977,33.761,22.983,55.327v0.003l0,0
						c0,21.571-8.798,41.145-22.983,55.33c-14.179,14.185-33.758,22.977-55.323,22.977h-0.006h-0.003
						c-21.563,0-41.142-8.792-55.324-22.977c-14.185-14.185-22.979-33.758-22.979-55.327v-0.003l0,0
						c0-21.568,8.795-41.145,22.979-55.33c14.183-14.179,33.759-22.974,55.318-22.977H221.383L221.383,129.628z M221.386,132.601
						L221.386,132.601h-0.003h-0.009c-20.739,0-39.571,8.464-53.218,22.107s-22.107,32.479-22.107,53.227l0,0v0.003
						c0.003,20.742,8.461,39.574,22.107,53.227c13.646,13.641,32.479,22.107,53.224,22.107h0.003h0.006
						c20.745,0,39.577-8.467,53.224-22.107c13.646-13.646,22.107-32.484,22.107-53.229l0,0v-0.003
						c0-20.745-8.461-39.58-22.107-53.224S242.134,132.601,221.386,132.601z"/>
					<linearGradient id="SVGID_10_" gradientUnits="userSpaceOnUse" x1="60.335" y1="207.9424" x2="342.8144" y2="207.9424">
						<stop  offset="0" style="stop-color:#7B5C3C"/>
						<stop  offset="0.05" style="stop-color:#2E1F17"/>
						<stop  offset="0.13" style="stop-color:#654322"/>
						<stop  offset="0.19" style="stop-color:#402B1A"/>
						<stop  offset="0.49" style="stop-color:#2E1F17"/>
						<stop  offset="0.72" style="stop-color:#402B1A"/>
						<stop  offset="0.83" style="stop-color:#7B5C3C"/>
						<stop  offset="0.93" style="stop-color:#2E1F17"/>
						<stop  offset="1" style="stop-color:#7B5C3C"/>
					</linearGradient>
					<path fill-rule="evenodd" clip-rule="evenodd" fill="url(#SVGID_10_)" d="M312.606,188.237L312.606,188.237l-3.122,1.803
						l0.759,3.523l-2.675-2.409l-3.11,1.813l1.457-3.294l-2.688-2.4l3.588,0.376l1.451-3.303l0.753,3.532L312.606,188.237
						L312.606,188.237z M304.397,165.303L304.397,165.303l-2.547,2.547l1.646,3.208l-3.214-1.638l-2.535,2.556l0.563-3.56
						l-3.221-1.625l3.563-0.566l0.551-3.56l1.635,3.214L304.397,165.303L304.397,165.303z M290.53,145.268L290.53,145.268
						l-1.807,3.122l2.425,2.669l-3.526-0.75l-1.788,3.125l-0.379-3.582l-3.526-0.735l3.293-1.466l-0.392-3.582l2.412,2.676
						L290.53,145.268L290.53,145.268z M271.949,129.506L271.949,129.506l-0.931,3.48l3.024,1.95l-3.6,0.189l-0.919,3.486
						l-1.285-3.367l-3.6,0.202l2.804-2.265l-1.311-3.361l3.024,1.965L271.949,129.506L271.949,129.506z M249.921,119.089
						L249.921,119.089v3.606l3.441,1.102l-3.435,1.108l0.019,3.608l-2.119-2.917l-3.422,1.126l2.112-2.914l-2.131-2.908l3.429,1.111
						L249.921,119.089L249.921,119.089z M201.672,116.72L201.672,116.72l1.804,3.125l3.52-0.765l-2.409,2.678l1.813,3.113
						l-3.291-1.463l-2.402,2.685l0.38-3.585l-3.301-1.454l3.526-0.744L201.672,116.72L201.672,116.72z M178.738,124.936
						L178.738,124.936l2.553,2.55l3.202-1.65l-1.635,3.211l2.56,2.537l-3.561-0.56l-1.625,3.211l-0.563-3.557l-3.561-0.551
						l3.212-1.638L178.738,124.936L178.738,124.936z M158.71,138.8L158.71,138.8l3.122,1.8l2.669-2.419l-0.75,3.523l3.129,1.791
						l-3.585,0.383l-0.734,3.523l-1.467-3.294l-3.587,0.389l2.682-2.412L158.71,138.8L158.71,138.8z M142.951,157.377
						L142.951,157.377l3.483,0.934l1.95-3.03l0.187,3.603l3.483,0.916l-3.364,1.289l0.202,3.603l-2.269-2.801l-3.361,1.298
						l1.963-3.019L142.951,157.377L142.951,157.377z M132.534,179.399L132.534,179.399l3.605,0.003l1.103-3.435l1.107,3.432
						l3.606-0.015l-2.914,2.118l1.126,3.422l-2.917-2.118l-2.908,2.131l1.114-3.429L132.534,179.399L132.534,179.399z
						 M128.175,203.368L128.175,203.368l3.48-0.931l0.175-3.6l1.962,3.019l3.48-0.946l-2.269,2.804l1.972,3.012l-3.364-1.289
						l-2.256,2.811l0.187-3.6L128.175,203.368L128.175,203.368z M130.168,227.646L130.168,227.646l3.119-1.806l-0.763-3.514
						l2.679,2.412l3.113-1.813l-1.466,3.294l2.688,2.399l-3.585-0.379l-1.454,3.293l-0.747-3.52L130.168,227.646L130.168,227.646z
						 M138.371,250.585L138.371,250.585l2.55-2.547l-1.646-3.208l3.208,1.641l2.541-2.559l-0.563,3.557l3.217,1.629l-3.56,0.557
						l-0.551,3.563l-1.635-3.208L138.371,250.585L138.371,250.585z M152.235,270.618L152.235,270.618l1.806-3.123l-2.421-2.669
						l3.523,0.747l1.791-3.122l0.376,3.587l3.529,0.729l-3.294,1.469l0.393,3.582l-2.412-2.682L152.235,270.618L152.235,270.618z
						 M170.816,286.376L170.816,286.376l0.934-3.483l-3.03-1.947l3.597-0.19l0.921-3.49l1.292,3.367l3.6-0.202l-2.804,2.271
						l1.304,3.355l-3.021-1.959L170.816,286.376L170.816,286.376z M192.838,296.796L192.838,296.796v-3.606l-3.432-1.108
						l3.429-1.108l-0.016-3.606l2.121,2.92l3.423-1.132l-2.118,2.92l2.127,2.908l-3.425-1.114L192.838,296.796L192.838,296.796z
						 M216.81,301.155L216.81,301.155l-0.937-3.477l-3.601-0.184l3.021-1.959l-0.942-3.478l2.801,2.266l3.012-1.972l-1.288,3.361
						l2.81,2.259l-3.603-0.184L216.81,301.155L216.81,301.155z M241.093,299.153L241.093,299.153l-1.8-3.116l-3.526,0.76
						l2.412-2.676l-1.812-3.116l3.293,1.469l2.4-2.688l-0.38,3.582l3.3,1.457l-3.521,0.747L241.093,299.153L241.093,299.153z
						 M264.027,290.949L264.027,290.949l-2.547-2.553l-3.208,1.653l1.641-3.208l-2.56-2.547l3.563,0.575l1.629-3.22l0.557,3.551
						l3.557,0.557l-3.208,1.635L264.027,290.949L264.027,290.949z M284.059,277.083L284.059,277.083l-3.122-1.8l-2.663,2.424
						l0.747-3.526l-3.129-1.788l3.588-0.38l0.729-3.532l1.476,3.3l3.575-0.392l-2.682,2.412L284.059,277.083L284.059,277.083z
						 M299.817,258.507L299.817,258.507l-3.478-0.93l-1.953,3.037l-0.184-3.6l-3.489-0.931l3.367-1.286l-0.202-3.6l2.266,2.804
						l3.354-1.31l-1.959,3.024L299.817,258.507L299.817,258.507z M310.237,236.486L310.237,236.486h-3.611l-1.097,3.435
						l-1.114-3.428l-3.605,0.012l2.92-2.118l-1.133-3.429l2.927,2.118l2.902-2.124l-1.114,3.428L310.237,236.486L310.237,236.486z
						 M314.597,212.524L314.597,212.524l-3.478,0.93l-0.184,3.594l-1.959-3.018l-3.478,0.949l2.266-2.805l-1.972-3.015l3.361,1.292
						l2.259-2.807l-0.189,3.597L314.597,212.524L314.597,212.524z M225.953,114.73L225.953,114.73l0.937,3.48l3.6,0.178
						l-3.027,1.959l0.949,3.48l-2.798-2.268l-3.021,1.975l1.298-3.368l-2.813-2.256l3.601,0.187L225.953,114.73z"/>
				</g>
				<g>
					<g>
						<g>
							<g>
								<g>
									<linearGradient id="SVGID_11_" gradientUnits="userSpaceOnUse" x1="237.0771" y1="180.2793" x2="257.7334" y2="180.2793">
										<stop  offset="0.1" style="stop-color:#997132"/>
										<stop  offset="0.22" style="stop-color:#CA9C49"/>
										<stop  offset="0.5" style="stop-color:#CBA655"/>
										<stop  offset="0.72" style="stop-color:#D3C16A"/>
										<stop  offset="0.83" style="stop-color:#947534"/>
									</linearGradient>
									<path fill="url(#SVGID_11_)" d="M257.733,176.736c-1.586,4.145-5.608,7.087-10.322,7.087s-8.736-2.942-10.334-7.087
										H257.733z"/>
									<g>
										<linearGradient id="SVGID_12_" gradientUnits="userSpaceOnUse" x1="236.7051" y1="167.8184" x2="258.1104" y2="167.8184">
											<stop  offset="0.1" style="stop-color:#997132"/>
											<stop  offset="0.22" style="stop-color:#CA9C49"/>
											<stop  offset="0.5" style="stop-color:#CBA655"/>
											<stop  offset="0.72" style="stop-color:#D3C16A"/>
											<stop  offset="0.83" style="stop-color:#947534"/>
										</linearGradient>
										<path fill="url(#SVGID_12_)" d="M257.733,176.65c-0.135,0-0.257-0.064-0.324-0.174l-9.998-16.484l-10.004,16.484
											c-0.092,0.156-0.318,0.22-0.502,0.135c-0.184-0.08-0.257-0.275-0.152-0.435l10.328-17.029
											c0.128-0.214,0.526-0.214,0.661,0l10.328,17.029c0.092,0.159,0.019,0.354-0.159,0.435
											C257.855,176.635,257.795,176.65,257.733,176.65z"/>
									</g>
									<g>
										<linearGradient id="SVGID_13_" gradientUnits="userSpaceOnUse" x1="247.0381" y1="167.6689" x2="247.7783" y2="167.6689">
											<stop  offset="0.1" style="stop-color:#997132"/>
											<stop  offset="0.22" style="stop-color:#CA9C49"/>
											<stop  offset="0.5" style="stop-color:#CBA655"/>
											<stop  offset="0.72" style="stop-color:#D3C16A"/>
											<stop  offset="0.83" style="stop-color:#947534"/>
										</linearGradient>
										<path fill="url(#SVGID_13_)" d="M247.411,176.191c-0.208,0-0.373-0.135-0.373-0.3v-16.447
											c0-0.165,0.165-0.297,0.373-0.297c0.202,0,0.367,0.132,0.367,0.297v16.447
											C247.778,176.057,247.613,176.191,247.411,176.191z"/>
									</g>
									<linearGradient id="SVGID_14_" gradientUnits="userSpaceOnUse" x1="235.6074" y1="175.8174" x2="259.2148" y2="175.8174">
										<stop  offset="0.1" style="stop-color:#997132"/>
										<stop  offset="0.22" style="stop-color:#CA9C49"/>
										<stop  offset="0.5" style="stop-color:#CBA655"/>
										<stop  offset="0.72" style="stop-color:#D3C16A"/>
										<stop  offset="0.83" style="stop-color:#947534"/>
									</linearGradient>
									<rect x="235.607" y="174.899" fill="url(#SVGID_14_)" width="23.607" height="1.836"/>
								</g>
								<linearGradient id="SVGID_15_" gradientUnits="userSpaceOnUse" x1="195.0811" y1="159.7026" x2="216.6074" y2="159.7026">
									<stop  offset="0.1" style="stop-color:#997132"/>
									<stop  offset="0.22" style="stop-color:#CA9C49"/>
									<stop  offset="0.5" style="stop-color:#CBA655"/>
									<stop  offset="0.72" style="stop-color:#D3C16A"/>
									<stop  offset="0.83" style="stop-color:#947534"/>
								</linearGradient>
								<path fill="url(#SVGID_15_)" d="M216.607,159.444c-1.94,0.774-3.836,1.739-5.528,2.666c-2.498,1.387-5.452,1.85-7.414,1.653
									c-2.89-0.288-5.758-1.696-8.584-3.483v-2.125c2.826,1.782,5.201,2.822,8.419,2.945c2.868,0.101,5.2-1.319,7.579-2.789
									c1.644-1.004,3.523-1.977,5.464-2.712L216.607,159.444z"/>
								<linearGradient id="SVGID_16_" gradientUnits="userSpaceOnUse" x1="225.2119" y1="159.7041" x2="246.8115" y2="159.7041">
									<stop  offset="0.1" style="stop-color:#997132"/>
									<stop  offset="0.22" style="stop-color:#CA9C49"/>
									<stop  offset="0.5" style="stop-color:#CBA655"/>
									<stop  offset="0.72" style="stop-color:#D3C16A"/>
									<stop  offset="0.83" style="stop-color:#947534"/>
								</linearGradient>
								<path fill="url(#SVGID_16_)" d="M246.812,158.167v2.125c-2.828,1.788-5.706,3.199-8.584,3.487
									c-1.959,0.195-4.922-0.27-7.42-1.653c-1.714-0.939-3.627-1.926-5.596-2.694l0.064-3.845c1.95,0.732,3.875,1.727,5.531,2.74
									c2.376,1.466,4.702,2.887,7.579,2.786C241.595,160.99,243.983,159.952,246.812,158.167z"/>
								<linearGradient id="SVGID_17_" gradientUnits="userSpaceOnUse" x1="245.2441" y1="158.7568" x2="249.5791" y2="158.7568">
									<stop  offset="0.1" style="stop-color:#997132"/>
									<stop  offset="0.83" style="stop-color:#947534"/>
								</linearGradient>
								<path fill="url(#SVGID_17_)" d="M245.244,158.758c0,1.2,0.967,2.167,2.167,2.167c1.194,0,2.168-0.967,2.168-2.167
									s-0.974-2.17-2.168-2.17C246.211,156.588,245.244,157.558,245.244,158.758z"/>
								<linearGradient id="SVGID_18_" gradientUnits="userSpaceOnUse" x1="217.3877" y1="145.3047" x2="224.7832" y2="145.3047">
									<stop  offset="0.1" style="stop-color:#997132"/>
									<stop  offset="0.22" style="stop-color:#CA9C49"/>
									<stop  offset="0.5" style="stop-color:#CBA655"/>
									<stop  offset="0.72" style="stop-color:#D3C16A"/>
									<stop  offset="0.83" style="stop-color:#947534"/>
								</linearGradient>
								<path fill="url(#SVGID_18_)" d="M223.685,141.855l0.799,10.873l-3.4-0.101l-3.401,0.101l0.784-10.889
									c-0.671-0.419-1.078-0.995-1.078-1.638c0-1.285,1.65-2.32,3.695-2.32s3.7,1.035,3.7,2.32
									C224.783,140.845,224.364,141.432,223.685,141.855z"/>
								<linearGradient id="SVGID_19_" gradientUnits="userSpaceOnUse" x1="217.667" y1="268.7563" x2="224.1895" y2="268.7563">
									<stop  offset="0.1" style="stop-color:#997132"/>
									<stop  offset="0.22" style="stop-color:#CA9C49"/>
									<stop  offset="0.5" style="stop-color:#CBA655"/>
									<stop  offset="0.72" style="stop-color:#D3C16A"/>
									<stop  offset="0.83" style="stop-color:#947534"/>
								</linearGradient>
								<path fill="url(#SVGID_19_)" d="M220.936,259.756c1.09,0,2.177-0.018,3.254-0.061l-0.177,11.222l-3.086,6.912l-3.083-6.912
									l-0.177-11.234C218.753,259.738,219.84,259.756,220.936,259.756z"/>
								<linearGradient id="SVGID_20_" gradientUnits="userSpaceOnUse" x1="216.5127" y1="179.793" x2="225.3408" y2="179.793">
									<stop  offset="0.1" style="stop-color:#997132"/>
									<stop  offset="0.22" style="stop-color:#CA9C49"/>
									<stop  offset="0.5" style="stop-color:#CBA655"/>
									<stop  offset="0.72" style="stop-color:#D3C16A"/>
									<stop  offset="0.83" style="stop-color:#947534"/>
								</linearGradient>
								<path fill="url(#SVGID_20_)" d="M225.341,155.587l-0.845,48.326c-1.182,0.055-2.37,0.086-3.561,0.086
									c-1.196,0-2.388-0.031-3.575-0.086l-0.848-48.326l3.68,0.166l0.743,26.307l0.744-26.307L225.341,155.587z"/>
								<linearGradient id="SVGID_21_" gradientUnits="userSpaceOnUse" x1="204.6904" y1="153.2861" x2="237.4814" y2="153.2861">
									<stop  offset="0.1" style="stop-color:#997132"/>
									<stop  offset="0.5" style="stop-color:#CBA655"/>
									<stop  offset="0.83" style="stop-color:#947534"/>
								</linearGradient>
								<path fill="url(#SVGID_21_)" d="M237.481,153.288c0,1.27-1.127,2.299-2.522,2.299c-0.833,0-1.58-0.374-2.033-0.943
									l-11.837,0.49l-11.838-0.49c-0.462,0.569-1.205,0.943-2.041,0.943c-1.396,0-2.52-1.029-2.52-2.299
									c0-1.267,1.123-2.302,2.52-2.302c0.836,0,1.57,0.371,2.032,0.94l11.847-0.49l11.85,0.49c0.453-0.569,1.188-0.94,2.021-0.94
									C236.354,150.986,237.481,152.021,237.481,153.288z"/>
								<g>
									<linearGradient id="SVGID_22_" gradientUnits="userSpaceOnUse" x1="184.4043" y1="180.2793" x2="205.0605" y2="180.2793">
										<stop  offset="0.1" style="stop-color:#997132"/>
										<stop  offset="0.22" style="stop-color:#CA9C49"/>
										<stop  offset="0.5" style="stop-color:#CBA655"/>
										<stop  offset="0.72" style="stop-color:#D3C16A"/>
										<stop  offset="0.83" style="stop-color:#947534"/>
									</linearGradient>
									<path fill="url(#SVGID_22_)" d="M205.061,176.736c-1.589,4.145-5.61,7.087-10.328,7.087c-4.711,0-8.733-2.942-10.328-7.087
										H205.061z"/>
									<g>
										<linearGradient id="SVGID_23_" gradientUnits="userSpaceOnUse" x1="184.0327" y1="167.8184" x2="205.4355" y2="167.8184">
											<stop  offset="0.1" style="stop-color:#997132"/>
											<stop  offset="0.22" style="stop-color:#CA9C49"/>
											<stop  offset="0.5" style="stop-color:#CBA655"/>
											<stop  offset="0.72" style="stop-color:#D3C16A"/>
											<stop  offset="0.83" style="stop-color:#947534"/>
										</linearGradient>
										<path fill="url(#SVGID_23_)" d="M205.061,176.65c-0.135,0-0.263-0.064-0.33-0.174l-9.998-16.484l-9.997,16.484
											c-0.096,0.156-0.322,0.22-0.502,0.135c-0.184-0.08-0.254-0.275-0.156-0.435l10.325-17.029
											c0.132-0.214,0.532-0.214,0.661,0l10.331,17.029c0.092,0.159,0.024,0.354-0.159,0.435
											C205.177,176.635,205.119,176.65,205.061,176.65z"/>
									</g>
									<g>
										<linearGradient id="SVGID_24_" gradientUnits="userSpaceOnUse" x1="194.3594" y1="167.6689" x2="195.1064" y2="167.6689">
											<stop  offset="0.1" style="stop-color:#997132"/>
											<stop  offset="0.22" style="stop-color:#CA9C49"/>
											<stop  offset="0.5" style="stop-color:#CBA655"/>
											<stop  offset="0.72" style="stop-color:#D3C16A"/>
											<stop  offset="0.83" style="stop-color:#947534"/>
										</linearGradient>
										<path fill="url(#SVGID_24_)" d="M194.732,176.191c-0.205,0-0.373-0.135-0.373-0.3v-16.447
											c0-0.165,0.168-0.297,0.373-0.297c0.208,0,0.374,0.132,0.374,0.297v16.447
											C195.106,176.057,194.94,176.191,194.732,176.191z"/>
									</g>
									<linearGradient id="SVGID_25_" gradientUnits="userSpaceOnUse" x1="182.9316" y1="175.8174" x2="206.5332" y2="175.8174">
										<stop  offset="0.1" style="stop-color:#997132"/>
										<stop  offset="0.22" style="stop-color:#CA9C49"/>
										<stop  offset="0.5" style="stop-color:#CBA655"/>
										<stop  offset="0.72" style="stop-color:#D3C16A"/>
										<stop  offset="0.83" style="stop-color:#947534"/>
									</linearGradient>
									<rect x="182.932" y="174.899" fill="url(#SVGID_25_)" width="23.602" height="1.836"/>
								</g>
								<linearGradient id="SVGID_26_" gradientUnits="userSpaceOnUse" x1="192.5654" y1="158.7568" x2="196.8994" y2="158.7568">
									<stop  offset="0.1" style="stop-color:#997132"/>
									<stop  offset="0.83" style="stop-color:#947534"/>
								</linearGradient>
								<path fill="url(#SVGID_26_)" d="M196.899,158.758c0,1.2-0.97,2.167-2.167,2.167c-1.2,0-2.167-0.967-2.167-2.167
									s0.967-2.17,2.167-2.17C195.93,156.588,196.899,157.558,196.899,158.758z"/>
							</g>
							<g>
								<ellipse fill="#FFFFFF" cx="220.719" cy="221.058" rx="38.852" ry="38.857"/>
								<g>
									<g>
										<path fill="none" stroke="#FFFFFF" stroke-width="4.1268" stroke-miterlimit="10" d="M260.513,220.525
											c0,21.526-17.864,38.98-39.896,38.98c-22.034,0-39.893-17.454-39.893-38.98s17.858-38.971,39.893-38.971
											C242.648,181.554,260.513,199,260.513,220.525z"/>
										<linearGradient id="SVGID_27_" gradientUnits="userSpaceOnUse" x1="178.6611" y1="220.5425" x2="262.5762" y2="220.5425">
											<stop  offset="0.1" style="stop-color:#997132"/>
											<stop  offset="0.3457" style="stop-color:#CA9C49"/>
											<stop  offset="0.6152" style="stop-color:#CBA655"/>
											<stop  offset="0.83" style="stop-color:#947534"/>
										</linearGradient>
										<path fill="none" stroke="url(#SVGID_27_)" stroke-width="4.1268" stroke-miterlimit="10" d="M260.513,220.538
											c0,21.532-17.864,38.98-39.898,38.98c-22.031,0-39.89-17.448-39.89-38.98c0-21.522,17.858-38.971,39.89-38.971
											C242.648,181.567,260.513,199.015,260.513,220.538z"/>
									</g>
								</g>
								
									<rect x="238.607" y="219.234" stroke="#000000" stroke-width="0.6878" stroke-miterlimit="10" width="19.481" height="0.924"/>
								
									<rect x="183.165" y="219.234" stroke="#000000" stroke-width="0.6878" stroke-miterlimit="10" width="19.563" height="0.924"/>
								
									<rect x="220.143" y="184.022" stroke="#000000" stroke-width="0.6878" stroke-miterlimit="10" width="0.922" height="7.98"/>
								
									<rect x="220.143" y="248.963" stroke="#000000" stroke-width="0.6878" stroke-miterlimit="10" width="0.922" height="8.161"/>
								<g>
									<path fill="none" stroke="#F7D70B" stroke-width="2.7512" stroke-miterlimit="10" d="M236.667,220.868
										c0,16.42-7.163,26.301-15.961,25.75c-11.51-0.717-15.957-11.339-15.957-25.75c0-13.071,3.902-25.756,15.957-25.756
										C229.522,195.112,236.667,203.521,236.667,220.868z"/>
									<g>
										<path fill="#FFFFFF" d="M235.026,220.807c-0.784,15.122-6.049,23.693-14.363,24.061
											c-8.023,0.367-13.609-8.938-14.365-24.061c-0.741-14.853,6.438-24.409,14.365-24.066
											C229.736,197.138,235.755,206.95,235.026,220.807z"/>
										<g>
											<path d="M207.191,200.916l-0.021-0.019c-0.3-0.364-0.3-0.979-0.013-1.359c3.389-4.43,8.639-7.347,13.436-7.347
												s9.429,2.519,12.817,6.952c0.287,0.376,0.281,0.992-0.013,1.353l-0.019,0.021c-0.281,0.346-0.722,0.321-0.991-0.037
												c-3.123-4.074-7.384-6.395-11.795-6.395c-4.414,0-9.29,2.715-12.41,6.793
												C207.911,201.237,207.473,201.259,207.191,200.916z"/>
											<path d="M234.573,239.75L234.573,239.75c-0.313-0.288-0.08-1.972,0.122-2.388c1.708-3.515,2.603-7.562,2.603-11.755v-9.6
												c0-4.194-0.895-8.247-2.603-11.761c-0.202-0.42-0.116-0.986,0.202-1.273l0,0c0.343-0.31,0.809-0.178,1.028,0.284
												c1.849,3.812,2.816,8.195,2.816,12.75v9.6c0,4.542-1.292,10.053-3.141,13.86
												C235.375,239.933,234.909,240.068,234.573,239.75z"/>
											<path d="M220.593,249.422c-4.797,0-9.707-2.571-13.096-7.004c-0.287-0.374-0.287-0.992,0.013-1.353l0.021-0.018
												c0.281-0.343,0.72-0.325,0.991,0.036c3.12,4.071,7.656,6.441,12.07,6.441c4.417,0,9.291-2.718,12.413-6.79
												c0.275-0.361,0.704-0.374,0.991-0.037l0.019,0.019c0.294,0.367,0.307,0.979,0.013,1.359
												C230.637,246.508,225.39,249.422,220.593,249.422z"/>
											<path d="M206.757,239.504c-0.318,0.318-0.777,0.232-1.007-0.19c-2.168-4.022-3.307-8.749-3.307-13.708v-9.6
												c0-4.555,1.262-9.63,3.113-13.447c0.214-0.444,0.677-0.579,1.011-0.27l0.018,0.012c0.31,0.285,0.116,1.519-0.089,1.935
												c-1.708,3.517-2.607,7.57-2.607,11.77v9.6c0,4.555,1.04,8.89,3.027,12.587c0.22,0.417,0.162,0.979-0.138,1.286
												L206.757,239.504z"/>
											<path d="M220.96,245.816c-8.335,0.245-15.22-8.295-15.63-19.052c-0.021-0.551,0.31-1.022,0.734-1.022l0,0
												c0.386,0,0.714,0.392,0.729,0.894c0.346,9.22,5.956,16.652,12.948,17.216c8.011,0.661,14.702-7.983,14.702-18.514v-9
												c0-10.619-6.624-19.181-14.702-18.526c-7.225,0.591-12.964,8.495-12.964,18.122v7.021c0,0.533-0.328,0.961-0.734,0.961
												l0,0c-0.407,0-0.732-0.428-0.732-0.961v-6.63c0-10.974,6.585-20.222,14.947-20.47c8.6-0.254,15.655,8.85,15.655,20.078
												v9.403C235.914,236.321,229.326,245.565,220.96,245.816z"/>
											<path d="M217.976,241.451c-5.629-1.567-9.56-8.29-9.56-15.832v-9.63c0-0.71,0.033-1.42,0.106-2.124
												c0.059-0.588,0.481-0.98,0.916-0.857l0,0c0.395,0.098,0.661,0.588,0.605,1.108c-0.064,0.618-0.098,1.242-0.098,1.873
												v9.667c0,6.618,3.462,12.496,8.394,13.842c4.325,1.182,8.639-1.298,10.968-5.932c0.221-0.441,0.668-0.576,1.017-0.307
												l0,0c0.386,0.282,0.508,0.943,0.263,1.421C227.903,240.006,222.944,242.841,217.976,241.451z"/>
											<path d="M231.561,228.931L231.561,228.931c-0.392-0.104-0.661-0.594-0.605-1.114c0.061-0.618,0.098-1.243,0.098-1.867
												v-9.686c0-6.621-3.475-12.501-8.421-13.833c-4.328-1.166-8.627,1.319-10.959,5.969c-0.218,0.438-0.658,0.569-1.014,0.315
												l0,0c-0.382-0.287-0.502-0.949-0.263-1.429c2.675-5.335,7.628-8.176,12.6-6.817c5.636,1.558,9.587,8.28,9.587,15.838
												v9.643c0,0.71-0.036,1.42-0.104,2.124C232.412,228.656,231.995,229.047,231.561,228.931z"/>
											<path d="M220.773,238.01c-4.9,0.11-8.917-5.229-8.917-11.485v-5.485c0-0.612,0.395-1.108,0.875-1.108l0,0
												c0.479,0,0.873,0.496,0.873,1.108v5.522c0,4.824,2.896,8.975,6.667,9.214c4.038,0.257,7.38-3.857,7.38-8.957V216.38
												c0-0.618,0.401-1.12,0.873-1.12l0,0c0.48,0,0.872,0.502,0.872,1.12v10.438
												C229.396,232.929,225.54,237.913,220.773,238.01z"/>
											<path d="M212.778,215.26L212.778,215.26c-0.509,0-0.922-0.557-0.87-1.2c0.475-5.604,4.197-9.979,8.719-9.979
												c3.214,0,6.125,2.216,7.661,5.74c0.252,0.569,0.037,1.295-0.432,1.549l0,0c-0.416,0.221-0.884,0.003-1.102-0.493
												c-1.233-2.807-3.561-4.573-6.128-4.573c-3.609,0-6.594,3.49-6.979,7.965C213.599,214.832,213.225,215.26,212.778,215.26z
												"/>
											<path stroke="#000000" stroke-width="0.4127" stroke-miterlimit="10" d="M220.669,208.385
												c3.062-0.083,5.565,3.899,5.565,8.577v4.102c0,0.453-0.235,0.82-0.538,0.82l0,0c-0.301,0-0.549-0.367-0.549-0.82v-4.126
												c0-3.612-1.806-6.707-4.163-6.885c-2.516-0.196-4.604,2.881-4.604,6.688v7.8c0,0.453-0.248,0.833-0.548,0.833l0,0
												c-0.3,0-0.542-0.38-0.542-0.833v-7.8C215.291,212.181,217.694,208.461,220.669,208.385z"/>
											<path stroke="#000000" stroke-width="0.4127" stroke-miterlimit="10" d="M225.662,224.725L225.662,224.725
												c0.318,0,0.575,0.447,0.542,0.979c-0.297,4.506-2.617,8.032-5.439,8.032c-2.002,0-3.826-1.787-4.785-4.628
												c-0.152-0.453-0.027-1.041,0.27-1.249l0,0c0.258-0.171,0.555,0,0.689,0.404c0.777,2.253,2.228,3.686,3.826,3.686
												c2.253,0,4.117-2.816,4.361-6.416C225.157,225.068,225.381,224.725,225.662,224.725z"/>
											<path stroke="#000000" stroke-width="0.5502" stroke-miterlimit="10" d="M220.571,224.376c0,0.165,0.159,0.3,0.355,0.3
												l0,0c0.195,0,0.352-0.135,0.352-0.3v-6.019c0-0.171-0.156-0.306-0.352-0.306l0,0c-0.196,0-0.355,0.135-0.355,0.306
												V224.376z"/>
											<path stroke="#000000" stroke-width="0.8254" stroke-miterlimit="10" d="M220.896,229.856
												c-1.347,0.049-2.448-2.614-2.448-5.743v-2.755c0-0.306,0.106-0.551,0.238-0.551l0,0c0.135,0,0.242,0.245,0.242,0.551
												v2.768c0,2.418,0.793,4.493,1.83,4.616c1.105,0.122,2.026-1.935,2.026-4.481v-5.229c0-0.307,0.107-0.551,0.239-0.551l0,0
												c0.132,0,0.242,0.245,0.242,0.551v5.229C223.266,227.309,222.206,229.807,220.896,229.856z"/>
											<path stroke="#000000" stroke-width="0.8254" stroke-miterlimit="10" d="M218.698,218.48L218.698,218.48
												c-0.141,0-0.251-0.306-0.236-0.661c0.132-2.988,1.151-5.327,2.392-5.327c0.881,0,1.684,1.188,2.105,3.074
												c0.07,0.3,0.013,0.686-0.119,0.82l0,0c-0.113,0.123-0.245,0.012-0.303-0.257c-0.34-1.506-0.979-2.449-1.684-2.449
												c-0.992,0-1.81,1.868-1.917,4.255C218.922,218.248,218.823,218.48,218.698,218.48z"/>
										</g>
									</g>
								</g>
							</g>
						</g>
						<path fill="#F7D70B" d="M235.938,201.503c0,2.183-1.77,3.952-3.949,3.952c-2.183,0-3.952-1.77-3.952-3.952
							c0-2.179,1.77-3.949,3.952-3.949C234.169,197.555,235.938,199.324,235.938,201.503z"/>
					</g>
					<path fill="#003891" d="M224.208,233.461c-3.257-1.83-6.404-3.851-9.438-6.018c-6.731-4.807-12.36-9.943-16.135-14.455
						c0.48-0.63,0.769-1.426,0.769-2.286c0-2.104-1.708-3.806-3.814-3.806c-0.361,0-0.714,0.049-1.041,0.141
						c-2.161-4.399-0.165-5.794,4.509-5.642c1.748,0.058,3.934,0.085,7.699,1.733c0.358-0.615,0.358-0.615,0.683-1.099l0.518-0.916
						c-4.473-1.886-6.974-1.833-8.62-1.932c-6.612-0.382-9.802,2.954-6.738,9.162c-0.514,0.646-0.816,1.466-0.816,2.357
						c0,2.103,1.701,3.805,3.808,3.805c0.37,0,0.729-0.049,1.068-0.153c3.894,4.702,9.74,10.053,16.723,15.036
						c2.626,1.874,5.336,3.643,8.121,5.271 M223.881,235.99c4.185,2.277,8.071,3.943,11.347,4.898
						c2.927,0.851,8.571,2.02,10.524-1.237c1.12-1.885,0.435-4.358-0.422-6.22c-0.962-2.106-2.511-4.494-4.813-7.12
						 M238.277,227.395c2.118,2.473,3.869,4.959,4.744,6.894c2.737,5.975-2.173,5.645-7.267,4.163
						c-2.706-0.796-6.205-2.302-9.627-4.065"/>
					<path fill="#BD392C" d="M240.591,226.525c1.225-0.931,2.333-1.849,3.307-2.749c0.563,0.3,1.212,0.471,1.897,0.471
						c2.204,0,3.992-1.763,3.992-3.931c0-1.077-0.441-2.057-1.146-2.761c1.751-4.818-2.785-6.521-7.004-6.56
						c-2.92-0.024-0.68-0.131-3.281,0.095c0.141,1.108,0.123,0.691,0.178,1.304c0.073,0.704-0.013,0.386,0.135,1.09
						c2.987-0.123,0.686-0.043,2.951-0.024c1.922,0.019,5.553,0.239,4.781,2.963c-2.406-0.355-4.598,1.47-4.598,3.894
						c0,0.588,0.135,1.157,0.373,1.666c-1.745,1.61-3.875,3.22-5.89,4.58c-3.227,2.18-7.053,4.371-11.305,6.397
						c-0.569,0.275-3.977,1.782-4.543,2.039 M220.439,234.999c-5.666,2.375-11.065,4.016-15.52,4.812
						c-5.256,0.925-9.046,0.729-10.12-0.808c-1.824-2.621,6.067-8.926,7.818-10.23c-0.064-1.035-0.135-1.806-0.178-2.945
						c-3.364,2.351-13.104,9.698-9.713,14.559c1.687,2.424,6.389,2.95,12.63,1.849c5.104-0.906,20.887-5.204,35.233-15.71
						 M223.054,236.51c4.022-1.916,10.932-5.455,14.611-7.946c0.294-0.202,2.639-1.843,2.926-2.039"/>
				</g>
			</g>
		</g>
		<g>
			<path fill="#FFFFFF" stroke="#000000" stroke-width="0.5105" stroke-miterlimit="10" d="M112.131,171.571l2.533-6.11
				c1.521-3.67,4.937-5.486,9.579-3.562c4.054,1.681,6.197,5.034,4.404,9.358l-2.534,6.11L112.131,171.571z M124.821,173.182
				l1.151-2.777c0.749-1.805,0.368-3.985-2.727-5.269c-2.82-1.17-5.033-0.924-6.316,2.171l-0.921,2.221L124.821,173.182z"/>
			<path fill="#FFFFFF" stroke="#000000" stroke-width="0.5105" stroke-miterlimit="10" d="M118.732,156.581l1.554-2.992
				l13.429,6.979l-1.554,2.992L118.732,156.581z"/>
			<path fill="#FFFFFF" stroke="#000000" stroke-width="0.5105" stroke-miterlimit="10" d="M121.824,150.497l4.432-6.976
				c1.474-2.32,3.999-2.775,5.932-1.546c1.504,0.955,2.24,2.288,1.903,4.083l0.036,0.023c1.244-1.168,2.84-0.713,4.186,0.016
				c0.84,0.457,2.332,1.431,3.37,1.379l-1.808,2.845c-1.024-0.168-2.236-0.989-3.348-1.492c-1.469-0.654-2.394-0.504-3.303,0.927
				l-1.807,2.845l4.993,3.175l-1.808,2.845L121.824,150.497z M129.413,151.327l1.979-3.117c0.806-1.268,0.707-2.298-0.582-3.116
				c-1.236-0.786-2.21-0.438-3.016,0.83l-1.98,3.116L129.413,151.327z"/>
			<path fill="#FFFFFF" stroke="#000000" stroke-width="0.5105" stroke-miterlimit="10" d="M130.869,136.804l7.325-8.822
				l2.154,1.787l-5.172,6.229l2.497,2.071l4.746-5.717l1.991,1.652l-4.747,5.716l2.855,2.369l5.281-6.36l2.154,1.787l-7.435,8.954
				L130.869,136.804z"/>
			<path fill="#FFFFFF" stroke="#000000" stroke-width="0.5105" stroke-miterlimit="10" d="M151.579,122.266
				c-1.174-0.968-3.024-0.83-4.262,0.299c-2.238,2.039-1.363,4.686,0.423,6.643c1.7,1.864,4.256,2.977,6.494,0.938
				c1.524-1.389,1.437-3.203,0.284-4.849l2.412-2.199c2.291,3.02,1.967,6.584-0.81,9.115c-3.507,3.196-7.928,2.493-10.872-0.734
				c-3.03-3.319-3.325-7.783,0.182-10.98c2.491-2.271,5.901-2.739,8.561-0.43L151.579,122.266z"/>
			<path fill="#FFFFFF" stroke="#000000" stroke-width="0.5105" stroke-miterlimit="10" d="M164.856,112.671
				c-1.007-1.139-2.856-1.292-4.255-0.37c-2.528,1.666-2.079,4.418-0.621,6.631c1.388,2.107,3.737,3.605,6.265,1.939
				c1.722-1.135,1.92-2.941,1.039-4.748l2.725-1.796c1.789,3.341,0.913,6.813-2.225,8.881c-3.962,2.612-8.217,1.227-10.619-2.421
				c-2.472-3.753-2.066-8.211,1.896-10.823c2.815-1.855,6.254-1.786,8.519,0.911L164.856,112.671z"/>
			<path fill="#FFFFFF" stroke="#000000" stroke-width="0.5105" stroke-miterlimit="10" d="M167.641,105.29l2.999-1.538
				l6.907,13.472l-2.999,1.538L167.641,105.29z"/>
			<path fill="#FFFFFF" stroke="#000000" stroke-width="0.5105" stroke-miterlimit="10" d="M180.218,99.209
				c4.436-1.688,8.288,0.588,9.885,4.786c1.552,4.081,0.184,8.343-4.252,10.03c-4.437,1.688-8.289-0.587-9.84-4.667
				C174.414,105.158,175.782,100.897,180.218,99.209z M180.346,98.096l-1.987,0.755l0.857-3.546l3.152-1.198L180.346,98.096z
				 M184.856,111.411c2.83-1.077,2.99-3.858,2.094-6.216c-0.941-2.477-2.909-4.448-5.739-3.371s-2.991,3.858-2.049,6.334
				C180.058,110.517,182.026,112.488,184.856,111.411z"/>
			<path fill="#FFFFFF" stroke="#000000" stroke-width="0.5105" stroke-miterlimit="10" d="M190.772,95.957l3.273-0.715l8.417,8.559
				l0.042-0.009l-2.164-9.924l3.084-0.673l3.226,14.791l-3.294,0.72l-8.391-8.543l-0.042,0.01l2.16,9.902l-3.084,0.673
				L190.772,95.957z"/>
			<path fill="#FFFFFF" stroke="#000000" stroke-width="0.5105" stroke-miterlimit="10" d="M213.177,91.979l3.345-0.15l6.845,9.859
				l0.042-0.002l-0.454-10.147l3.152-0.142l0.677,15.126l-3.367,0.151l-6.822-9.84l-0.042,0.002l0.452,10.126l-3.152,0.142
				L213.177,91.979z"/>
			<path fill="#FFFFFF" stroke="#000000" stroke-width="0.5105" stroke-miterlimit="10" d="M234.94,92.158l3.419,0.513l3.421,15.817
				l-3.462-0.519l-0.646-3.505l-5.671-0.85l-1.69,3.155l-3.377-0.506L234.94,92.158z M233.242,101.293l3.929,0.589l-1.087-5.779
				l-0.041-0.007L233.242,101.293z"/>
			<path fill="#FFFFFF" stroke="#000000" stroke-width="0.5105" stroke-miterlimit="10" d="M254.693,101.793
				c0.207-1.507-0.885-3.009-2.494-3.468c-2.912-0.829-4.705,1.307-5.432,3.855c-0.69,2.428-0.293,5.187,2.618,6.016
				c1.982,0.565,3.481-0.463,4.276-2.309l3.138,0.894c-1.364,3.536-4.565,5.138-8.181,4.107c-4.564-1.301-6.289-5.431-5.092-9.632
				c1.23-4.324,4.874-6.924,9.439-5.623c3.24,0.924,5.433,3.577,4.865,7.054L254.693,101.793z"/>
			<path fill="#FFFFFF" stroke="#000000" stroke-width="0.5105" stroke-miterlimit="10" d="M261.923,98.939l3.149,1.207
				l-5.424,14.134l-3.148-1.207L261.923,98.939z"/>
			<path fill="#FFFFFF" stroke="#000000" stroke-width="0.5105" stroke-miterlimit="10" d="M274.688,104.064
				c4.246,2.114,5.187,6.489,3.183,10.513c-1.945,3.91-6.004,5.797-10.25,3.684c-4.248-2.115-5.186-6.49-3.24-10.399
				C266.384,103.837,270.441,101.95,274.688,104.064z M268.868,115.755c2.709,1.35,4.861-0.421,5.985-2.68
				c1.182-2.372,1.296-5.156-1.413-6.505c-2.71-1.35-4.862,0.421-6.042,2.793C266.273,111.622,266.158,114.406,268.868,115.755z"/>
			<path fill="#FFFFFF" stroke="#000000" stroke-width="0.5105" stroke-miterlimit="10" d="M284.259,109.584l2.747,1.918
				l-0.57,11.99l0.034,0.023l5.816-8.325l2.588,1.807l-8.671,12.411l-2.764-1.93l0.577-11.96l-0.036-0.025l-5.805,8.31l-2.588-1.808
				L284.259,109.584z"/>
			<path fill="#FFFFFF" stroke="#000000" stroke-width="0.5105" stroke-miterlimit="10" d="M301.108,122.539l2.509,2.378
				l-6.242,14.931l-2.541-2.407l1.475-3.244l-4.162-3.943l-3.19,1.62l-2.479-2.349L301.108,122.539z M294.49,129.059l2.885,2.731
				l2.415-5.361l-0.032-0.029L294.49,129.059z"/>
			<path fill="#FFFFFF" stroke="#000000" stroke-width="0.5105" stroke-miterlimit="10" d="M309.274,130.735l2.11,2.629
				l-9.626,7.722l4.677,5.828l-2.183,1.75l-6.786-8.456L309.274,130.735z"/>
			<path fill="#FFFFFF" stroke="#000000" stroke-width="0.5105" stroke-miterlimit="10" d="M321.03,146.738l3.065,5.858
				c1.843,3.519,1.047,7.304-3.404,9.633c-3.889,2.035-7.836,1.533-10.008-2.613l-3.066-5.858L321.03,146.738z M311.66,155.446
				l1.395,2.663c0.906,1.73,2.823,2.835,5.791,1.281c2.705-1.415,3.937-3.271,2.383-6.237l-1.115-2.131L311.66,155.446z"/>
			<path fill="#FFFFFF" stroke="#000000" stroke-width="0.5105" stroke-miterlimit="10" d="M328.574,161.899l3.92,10.776
				l-2.63,0.957l-2.767-7.608l-3.051,1.109l2.541,6.982L324.156,175l-2.541-6.982l-3.488,1.269l2.828,7.77l-2.633,0.957
				l-3.979-10.938L328.574,161.899z"/>
		</g>
		<g>
			<path fill="#FFFFFF" d="M135.277,260.042l3.621,6.708c2.001,3.708,0.67,6.284-1.494,7.454c-2.164,1.17-5.048,0.871-7.049-2.836
				l-1.855-3.437l-4.775,2.581l-1.765-3.271L135.277,260.042z M130.775,266.699l1.371,2.542c0.821,1.52,1.851,2.714,3.548,1.796
				c1.697-0.916,1.265-2.433,0.444-3.953l-1.372-2.542L130.775,266.699z"/>
			<path fill="#FFFFFF" d="M147.413,278.272c3.394,3.982,2.73,8.595-0.69,11.511c-3.322,2.834-7.98,2.762-11.374-1.221
				c-3.394-3.981-2.73-8.595,0.593-11.429C139.362,274.218,144.019,274.29,147.413,278.272z M137.478,286.747
				c2.166,2.541,4.915,1.845,6.834,0.208c2.017-1.72,3.138-4.326,0.973-6.867c-2.166-2.541-4.915-1.844-6.931-0.125
				C136.435,281.6,135.313,284.206,137.478,286.747z"/>
			<path fill="#FFFFFF" d="M153.679,285.525l2.903,2.32l-7.703,9.645l6.437,5.142l-1.747,2.188l-9.34-7.463L153.679,285.525z"/>
			<path fill="#FFFFFF" d="M164.21,293.498l3.149,1.97l-8.023,12.834l-3.15-1.971L164.21,293.498z"/>
			<path fill="#FFFFFF" d="M177.419,306.27c0.42-1.463-0.557-3.182-2.23-3.96c-3.026-1.407-5.237,0.37-6.354,2.771
				c-1.064,2.288-0.999,5.122,2.027,6.531c2.061,0.958,3.81,0.228,4.908-1.458l3.262,1.518c-1.935,3.261-5.594,4.224-9.35,2.476
				c-4.743-2.207-6.058-6.675-4.216-10.634c1.895-4.074,6.16-5.947,10.904-3.74c3.37,1.567,5.38,4.654,4.313,8.015L177.419,306.27z"
				/>
			<path fill="#FFFFFF" d="M184.708,303.565l3.519,1.192l-4.849,14.339l-3.519-1.193L184.708,303.565z M187.428,303.054
				l-2.219-0.751l3.116-2.123l3.519,1.191L187.428,303.054z"/>
			<path fill="#FFFFFF" d="M195.173,306.753l3.705,0.889l2.602,16.189l-3.75-0.9l-0.454-3.574l-6.143-1.477l-2.077,2.967
				l-3.658-0.879L195.173,306.753z M192.656,315.695l4.256,1.022l-0.771-5.896l-0.046-0.011L192.656,315.695z"/>
			<path fill="#FFFFFF" d="M222.672,316.106c-0.106-1.521-1.61-2.8-3.449-2.96c-3.324-0.289-4.793,2.138-5.021,4.779
				c-0.218,2.514,0.812,5.158,4.136,5.444c2.263,0.197,3.656-1.086,4.111-3.047l3.583,0.31c-0.703,3.727-3.811,5.884-7.935,5.526
				c-5.209-0.452-7.973-4.203-7.596-8.555c0.388-4.478,3.754-7.697,8.963-7.246c3.702,0.321,6.645,2.534,6.791,6.06L222.672,316.106
				z"/>
			<path fill="#FFFFFF" d="M228.328,310.975l3.708-0.264l1.081,15.097l-3.707,0.263L228.328,310.975z"/>
			<path fill="#FFFFFF" d="M234.59,310.591l12.456-2.157l0.477,2.759l-8.793,1.522l0.553,3.198l8.07-1.398l0.441,2.549l-8.07,1.397
				l0.632,3.657l8.98-1.555l0.477,2.758l-12.642,2.189L234.59,310.591z"/>
			<path fill="#FFFFFF" d="M248.75,308.068l3.508-1.148l9.856,7.459l0.045-0.014l-3.153-9.651l3.307-1.082l4.7,14.387l-3.531,1.155
				l-9.827-7.447l-0.045,0.014l3.147,9.632l-3.307,1.082L248.75,308.068z"/>
			<path fill="#FFFFFF" d="M268.95,303.483l-4.514,2.294l-1.27-2.494l12.339-6.271l1.269,2.494l-4.514,2.294l5.595,10.997
				l-3.311,1.684L268.95,303.483z"/>
			<path fill="#FFFFFF" d="M277.63,293.731l-1.957,1.29l0.241-3.764l3.104-2.043L277.63,293.731z M276.36,296.192l3.104-2.044
				l8.332,12.641l-3.104,2.042L276.36,296.192z"/>
			<path fill="#FFFFFF" d="M281.568,292.835l9.102-7.642l1.8,2.144l-6.255,5.252l2.251,2.68l5.421-4.552l1.663,1.981l-5.42,4.552
				l4.023,4.789l-2.847,2.391L281.568,292.835z"/>
			<path fill="#FFFFFF" d="M291.456,284.089l2.544-2.71l11.031,10.357l-2.545,2.709L291.456,284.089z"/>
			<path fill="#FFFFFF" d="M306.432,273.553c-1.363-0.68-3.229-0.031-4.298,1.473c-1.935,2.72-0.589,5.215,1.57,6.75
				c2.056,1.461,4.855,1.913,6.79-0.807c1.316-1.851,0.917-3.703-0.542-5.089l2.084-2.932c2.856,2.495,3.138,6.268,0.737,9.642
				c-3.031,4.262-7.664,4.744-11.223,2.213c-3.662-2.603-4.729-7.136-1.698-11.399c2.154-3.028,5.554-4.444,8.664-2.784
				L306.432,273.553z"/>
			<path fill="#FFFFFF" d="M307.015,262.104l1.64-3.439l16.38,0.812l-1.661,3.482l-3.591-0.298l-2.721,5.705l2.472,2.647
				l-1.62,3.396L307.015,262.104z M315.241,266.422l1.884-3.952L311.196,262l-0.021,0.044L315.241,266.422z"/>
		</g>
	</g>
</g>
</svg>
